<svg width="45" height="45" viewBox="0 0 45 45" fill="none" xmlns="http://www.w3.org/2000/svg">
<path d="M41.7788 39.7837L31.3583 29.3775C34.0439 26.1809 35.3918 22.071 35.1206 17.9047C34.8495 13.7385 32.9802 9.83774 29.9029 7.01624C26.8256 4.19467 22.7779 2.67037 18.6038 2.76074C14.43 2.85113 10.4516 4.54961 7.49963 7.50187C4.54736 10.454 2.84888 14.4319 2.7585 18.606C2.66812 22.7801 4.19258 26.8279 7.014 29.9051C9.83558 32.9823 13.7363 34.8517 17.9025 35.1229C22.0688 35.394 26.1788 34.0462 29.3753 31.3605L39.7815 41.781C40.0456 42.0472 40.4049 42.197 40.7799 42.197C41.1549 42.197 41.5143 42.0472 41.7784 41.781C42.0445 41.5169 42.1944 41.1576 42.1944 40.7826C42.1944 40.4076 42.0446 40.0482 41.7784 39.7841L41.7788 39.7837ZM5.62425 18.9855C5.62425 15.4423 7.03181 12.0442 9.537 9.53887C12.0422 7.03349 15.4403 5.62612 18.9836 5.62612C22.527 5.62612 25.9249 7.03368 28.4303 9.53887C30.9356 12.0441 32.343 15.4421 32.343 18.9855C32.343 22.5289 30.9354 25.9267 28.4303 28.4321C25.9251 30.9375 22.527 32.3449 18.9836 32.3449C15.4416 32.3412 12.0458 30.9325 9.54113 28.428C7.0365 25.9235 5.62763 22.5277 5.62425 18.9855Z" fill="black"/>
</svg>
